<?xml version="1.0" standalone="no"?>
<!DOCTYPE svg PUBLIC "-//W3C//DTD SVG 20010904//EN"
 "http://www.w3.org/TR/2001/REC-SVG-20010904/DTD/svg10.dtd">
<svg version="1.0" xmlns="http://www.w3.org/2000/svg"
 width="512.000000pt" height="512.000000pt" viewBox="0 0 512.000000 512.000000"
 preserveAspectRatio="xMidYMid meet">
<metadata>
Created by potrace 1.14, written by Peter Selinger 2001-2017
</metadata>
<g transform="translate(0.000000,512.000000) scale(0.100000,-0.100000)"
fill="#000000" stroke="none">
<path d="M2370 5048 c-74 -38 -250 -128 -390 -200 -285 -146 -527 -270 -765
-393 -401 -207 -623 -320 -653 -334 -17 -8 -32 -18 -32 -21 0 -5 8 -10 295
-189 195 -122 355 -222 456 -287 106 -67 407 -258 434 -274 48 -29 591 -374
685 -435 52 -34 102 -64 110 -68 8 -4 22 -12 31 -18 13 -10 44 3 165 66 82 43
154 81 159 85 6 4 73 40 150 80 77 40 154 80 170 90 17 10 84 46 150 80 66 34
176 93 245 130 69 37 179 95 245 130 66 34 134 70 150 80 17 9 80 43 140 75
61 32 133 70 160 85 324 172 325 173 314 186 -6 8 -15 14 -20 14 -5 0 -26 11
-47 24 -37 23 -264 156 -335 195 -21 12 -98 56 -170 98 -73 42 -276 159 -452
260 -176 102 -381 220 -455 263 -74 43 -149 87 -167 97 -148 84 -330 190 -344
198 -9 6 -34 20 -56 32 l-39 21 -134 -70z"/>
<path d="M290 2497 l0 -1223 30 -22 c16 -12 31 -22 34 -22 3 0 55 -31 117 -70
61 -38 113 -70 115 -70 3 0 10 -5 17 -10 7 -6 77 -51 157 -100 80 -50 152 -94
160 -99 100 -63 576 -360 595 -371 13 -8 77 -48 142 -88 65 -40 127 -79 137
-85 41 -25 193 -120 226 -142 32 -20 283 -174 305 -187 11 -6 13 2468 2 2478
-3 3 -331 203 -729 444 -398 242 -728 443 -734 447 -5 4 -19 13 -30 19 -38 21
-460 277 -495 300 -19 13 -38 24 -42 24 -4 0 -7 -550 -7 -1223z"/>
<path d="M4700 3463 c-69 -36 -213 -110 -320 -165 -107 -55 -235 -122 -285
-148 -49 -26 -184 -96 -300 -155 -115 -59 -241 -125 -280 -145 -38 -20 -158
-82 -265 -138 -107 -55 -256 -132 -330 -170 l-135 -70 -3 -1236 -2 -1236 92
48 c51 27 174 91 273 142 170 87 270 139 580 300 72 37 195 101 275 142 80 42
201 105 270 140 69 36 220 114 335 173 116 59 213 111 218 114 4 4 6 561 5
1238 l-3 1232 -125 -66z"/>
</g>
</svg>
